<mxfile host="65bd71144e">
    <diagram id="fHg8fcAbAHSfFw953ogR" name="第 1 页">
        <mxGraphModel dx="3320" dy="541" grid="1" gridSize="10" guides="1" tooltips="1" connect="1" arrows="1" fold="1" page="1" pageScale="1" pageWidth="827" pageHeight="1169" math="0" shadow="0">
            <root>
                <mxCell id="0"/>
                <mxCell id="1" parent="0"/>
                <mxCell id="2" value="" style="endArrow=classic;html=1;fillColor=#ffcd28;gradientColor=#ffa500;strokeColor=#d79b00;" parent="1" edge="1">
                    <mxGeometry width="50" height="50" relative="1" as="geometry">
                        <mxPoint x="-2181" y="472" as="sourcePoint"/>
                        <mxPoint x="-2181" y="302" as="targetPoint"/>
                    </mxGeometry>
                </mxCell>
                <mxCell id="3" value="" style="endArrow=classic;html=1;fillColor=#ffcd28;gradientColor=#ffa500;strokeColor=#d79b00;" parent="1" edge="1">
                    <mxGeometry width="50" height="50" relative="1" as="geometry">
                        <mxPoint x="-2181" y="472" as="sourcePoint"/>
                        <mxPoint x="-1941" y="472" as="targetPoint"/>
                    </mxGeometry>
                </mxCell>
                <mxCell id="4" value="" style="endArrow=classic;html=1;fillColor=#dae8fc;gradientColor=#7ea6e0;strokeColor=#6c8ebf;" parent="1" edge="1">
                    <mxGeometry width="50" height="50" relative="1" as="geometry">
                        <mxPoint x="-2181" y="472" as="sourcePoint"/>
                        <mxPoint x="-2257" y="336" as="targetPoint"/>
                    </mxGeometry>
                </mxCell>
                <mxCell id="5" value="" style="endArrow=classic;html=1;fillColor=#dae8fc;gradientColor=#7ea6e0;strokeColor=#6c8ebf;" parent="1" edge="1">
                    <mxGeometry width="50" height="50" relative="1" as="geometry">
                        <mxPoint x="-2181" y="470" as="sourcePoint"/>
                        <mxPoint x="-2007" y="340" as="targetPoint"/>
                    </mxGeometry>
                </mxCell>
                <mxCell id="6" value="q" style="text;html=1;align=center;verticalAlign=middle;resizable=0;points=[];autosize=1;strokeColor=#006EAF;fillColor=#1ba1e2;fontColor=#ffffff;" parent="1" vertex="1">
                    <mxGeometry x="-2327" y="294.36" width="30" height="30" as="geometry"/>
                </mxCell>
                <mxCell id="7" value="d" style="text;html=1;align=center;verticalAlign=middle;resizable=0;points=[];autosize=1;strokeColor=#006EAF;fillColor=#1ba1e2;fontColor=#ffffff;" parent="1" vertex="1">
                    <mxGeometry x="-1992" y="346" width="30" height="30" as="geometry"/>
                </mxCell>
                <mxCell id="8" value="α" style="text;html=1;align=center;verticalAlign=middle;resizable=0;points=[];autosize=1;strokeColor=#006EAF;fillColor=#1ba1e2;fontColor=#ffffff;" parent="1" vertex="1">
                    <mxGeometry x="-1950" y="420" width="30" height="30" as="geometry"/>
                </mxCell>
                <mxCell id="9" value="β" style="text;html=1;align=center;verticalAlign=middle;resizable=0;points=[];autosize=1;strokeColor=#006EAF;fillColor=#1ba1e2;fontColor=#ffffff;" parent="1" vertex="1">
                    <mxGeometry x="-2170" y="280" width="30" height="30" as="geometry"/>
                </mxCell>
                <mxCell id="10" value="" style="endArrow=none;dashed=1;html=1;fillColor=#e51400;strokeColor=#B20000;" parent="1" edge="1">
                    <mxGeometry width="50" height="50" relative="1" as="geometry">
                        <mxPoint x="-2177" y="346" as="sourcePoint"/>
                        <mxPoint x="-2017" y="346" as="targetPoint"/>
                    </mxGeometry>
                </mxCell>
                <mxCell id="12" value="" style="endArrow=none;dashed=1;html=1;fillColor=#e51400;strokeColor=#B20000;" parent="1" edge="1">
                    <mxGeometry width="50" height="50" relative="1" as="geometry">
                        <mxPoint x="-2007" y="346" as="sourcePoint"/>
                        <mxPoint x="-2007" y="466" as="targetPoint"/>
                    </mxGeometry>
                </mxCell>
                <mxCell id="13" value="" style="endArrow=none;dashed=1;html=1;fillColor=#e51400;strokeColor=#B20000;" parent="1" edge="1">
                    <mxGeometry width="50" height="50" relative="1" as="geometry">
                        <mxPoint x="-2250" y="341" as="sourcePoint"/>
                        <mxPoint x="-2250" y="474.36" as="targetPoint"/>
                    </mxGeometry>
                </mxCell>
                <mxCell id="14" value="" style="endArrow=none;dashed=1;html=1;fillColor=#e51400;strokeColor=#B20000;" parent="1" edge="1">
                    <mxGeometry width="50" height="50" relative="1" as="geometry">
                        <mxPoint x="-2250" y="334.36" as="sourcePoint"/>
                        <mxPoint x="-2180" y="334.36" as="targetPoint"/>
                    </mxGeometry>
                </mxCell>
                <mxCell id="15" value="θ" style="text;html=1;align=center;verticalAlign=middle;resizable=0;points=[];autosize=1;strokeColor=#B20000;fillColor=#e51400;fontColor=#ffffff;" parent="1" vertex="1">
                    <mxGeometry x="-2132" y="436" width="30" height="30" as="geometry"/>
                </mxCell>
                <mxCell id="16" value="θ" style="text;html=1;align=center;verticalAlign=middle;resizable=0;points=[];autosize=1;strokeColor=#B20000;fillColor=#e51400;fontColor=#ffffff;" parent="1" vertex="1">
                    <mxGeometry x="-2217" y="390" width="30" height="30" as="geometry"/>
                </mxCell>
                <mxCell id="17" value="θ" style="text;html=1;align=center;verticalAlign=middle;resizable=0;points=[];autosize=1;strokeColor=#B20000;fillColor=#e51400;fontColor=#ffffff;" parent="1" vertex="1">
                    <mxGeometry x="-2090" y="346" width="30" height="30" as="geometry"/>
                </mxCell>
                <mxCell id="18" value="θ" style="text;html=1;align=center;verticalAlign=middle;resizable=0;points=[];autosize=1;strokeColor=#B20000;fillColor=#e51400;fontColor=#ffffff;" parent="1" vertex="1">
                    <mxGeometry x="-2270" y="376" width="30" height="30" as="geometry"/>
                </mxCell>
                <mxCell id="19" value="Vα = Vd * cosθ - Vq * sinθ&lt;br&gt;Vβ = Vd * sinθ + Vq * cosθ" style="rounded=0;whiteSpace=wrap;html=1;fillColor=#60a917;fontColor=#ffffff;strokeColor=#2D7600;align=left;" parent="1" vertex="1">
                    <mxGeometry x="-2290" y="100" width="260" height="110" as="geometry"/>
                </mxCell>
                <mxCell id="20" value="" style="endArrow=none;dashed=1;html=1;dashPattern=1 3;strokeWidth=2;" parent="1" edge="1">
                    <mxGeometry width="50" height="50" relative="1" as="geometry">
                        <mxPoint x="-2350" y="476" as="sourcePoint"/>
                        <mxPoint x="-2180" y="476" as="targetPoint"/>
                    </mxGeometry>
                </mxCell>
            </root>
        </mxGraphModel>
    </diagram>
</mxfile>